<svg version="1.1" id="Layer_1" xmlns="http://www.w3.org/2000/svg" xmlns:xlink="http://www.w3.org/1999/xlink" x="0px" y="0px"
	 width="100%" viewBox="0 0 1024 1024" enable-background="new 0 0 1024 1024" xml:space="preserve">
<path fill="#000000" opacity="1.000000" stroke="none" 
	d="
M521.435791,430.376190 
	C527.826111,434.734467 531.764038,432.116699 536.415405,427.355743 
	C560.635681,402.565308 585.211304,378.121002 609.774231,353.667694 
	C612.453369,351.000488 613.192627,348.874390 611.812561,345.055054 
	C606.302002,329.805298 613.857788,314.186798 628.516785,309.584900 
	C643.196167,304.976654 658.411621,312.872131 662.708313,327.327332 
	C665.999146,338.398773 662.671753,350.132538 653.673157,356.940918 
	C644.464355,363.908325 634.345642,364.798828 624.175110,359.158630 
	C620.661743,357.210205 618.701233,357.855774 616.079468,360.502075 
	C590.629578,386.190094 565.067078,411.766541 539.516968,437.355164 
	C537.460083,439.415070 535.388062,441.182434 537.488770,444.569336 
	C539.502625,447.816193 539.305603,452.095459 545.545410,451.908691 
	C565.191528,451.320557 584.866577,451.608368 604.529175,451.740234 
	C608.197571,451.764832 610.126343,450.801056 611.424255,447.041229 
	C615.963135,433.893005 627.370178,427.621735 641.947998,429.730927 
	C654.164307,431.498444 663.097351,442.093475 663.910156,455.779266 
	C664.652710,468.280670 656.348877,479.278717 643.621887,482.650208 
	C630.198914,486.206024 616.403931,479.020081 611.589111,465.540009 
	C610.366638,462.117493 608.694092,460.913391 605.226624,460.769012 
	C588.901306,460.089264 572.586060,460.313080 556.266846,460.867065 
	C553.603638,460.957489 550.934814,460.889709 548.268555,460.881104 
	C539.378418,460.852448 539.476685,460.878662 536.970093,469.484711 
	C536.358398,471.585144 537.328491,472.628693 538.497559,473.800049 
	C564.863770,500.217896 591.273071,526.593079 617.557922,553.091614 
	C619.968384,555.521606 621.643311,554.666748 624.022034,553.401306 
	C635.806213,547.132324 650.877747,550.519287 658.527832,561.006775 
	C666.187561,571.507507 665.145874,586.757629 656.144409,595.898499 
	C646.382446,605.811646 631.765686,607.141418 620.614563,599.130920 
	C611.338379,592.467224 607.406006,579.335022 611.935547,567.791748 
	C613.577271,563.607788 612.726929,561.289490 609.763245,558.345886 
	C584.225830,532.981812 558.798035,507.506744 533.453918,481.949402 
	C530.739136,479.211731 528.862488,479.125702 525.020020,480.322235 
	C517.790527,482.573425 517.049072,486.903564 517.202209,493.360352 
	C517.608887,510.514709 517.439941,527.685852 517.272278,544.848145 
	C517.236206,548.546692 518.255676,550.431091 521.944702,551.736450 
	C535.361389,556.483765 542.274841,569.760437 539.065918,583.802246 
	C536.052673,596.987366 523.801086,605.574341 509.883453,604.255798 
	C496.537445,602.991394 486.329376,591.867310 485.747498,577.953796 
	C485.259125,566.276855 492.368225,555.436890 503.483795,551.668640 
	C506.952759,550.492737 508.155212,548.771301 508.131165,545.229187 
	C508.002167,526.233093 507.821930,507.231689 508.159882,488.241058 
	C508.288971,480.989227 501.977875,481.908142 498.488037,479.333862 
	C495.511993,477.138519 494.066162,480.459381 492.468018,482.054596 
	C466.878632,507.597534 441.377319,533.228760 415.760895,558.744446 
	C413.125214,561.369751 412.158356,563.417603 413.712860,567.332703 
	C417.944580,577.990234 416.310150,588.185730 408.154266,596.409119 
	C399.862762,604.769348 389.622803,606.522583 378.641418,602.357971 
	C367.489594,598.128479 362.049805,589.091125 362.045288,577.873535 
	C362.035889,554.511658 383.777771,544.843262 401.176392,553.236450 
	C404.962097,555.062683 406.835907,554.577148 409.562073,551.829468 
	C434.911865,526.279602 460.404266,500.871399 485.804871,475.371796 
	C487.651428,473.518066 490.586273,472.044983 488.631775,468.331604 
	C486.694550,464.651001 486.177185,460.776611 480.051941,460.746368 
	C460.231201,460.648560 440.417389,460.169464 420.592957,460.833923 
	C417.053741,460.952576 415.363953,462.130676 414.134308,465.518646 
	C409.379608,478.618805 396.474609,485.820526 383.578735,482.950409 
	C369.495087,479.815918 360.368317,467.585297 361.758545,453.709503 
	C363.155518,439.765900 373.907867,429.726471 388.138184,429.078827 
	C399.657867,428.554535 409.882812,435.204376 413.973022,446.590393 
	C415.411591,450.594940 417.352936,451.825592 421.485626,451.782288 
	C441.147003,451.576233 460.811768,451.704956 480.475250,451.666351 
	C482.864166,451.661682 485.970306,452.413025 486.530334,448.899902 
	C487.132111,445.124969 491.339600,441.960754 486.607910,437.320892 
	C460.671661,411.888000 435.101990,386.080688 409.485992,360.322815 
	C407.166046,357.990021 405.482849,357.345825 402.268433,359.137054 
	C392.109283,364.798309 379.499908,363.476166 371.396667,356.442108 
	C362.900665,349.067047 359.722382,337.237366 363.337189,326.444183 
	C366.970917,315.594421 376.335846,308.706635 388.268066,308.107941 
	C406.688812,307.183685 420.805878,326.374573 414.388062,344.258667 
	C412.714050,348.923462 413.769836,351.383850 416.946198,354.548370 
	C441.969910,379.478516 466.811554,404.591370 491.790619,429.566589 
	C493.588013,431.363708 495.220642,434.864624 498.716766,432.568542 
	C502.433441,430.127594 508.454834,430.844360 508.245880,423.221466 
	C507.748596,405.078430 508.172272,386.904877 508.493134,368.748413 
	C508.572662,364.248474 507.058472,362.176910 502.735687,360.577393 
	C491.698761,356.493530 484.975006,345.329468 485.759003,333.773102 
	C486.549011,322.128387 494.411255,312.363281 505.442352,309.325867 
	C519.610779,305.424591 533.825012,313.015533 538.532227,326.997223 
	C543.220764,340.923370 536.492981,355.875366 522.755188,360.924164 
	C518.579529,362.458740 517.207031,364.438873 517.261475,368.787750 
	C517.493225,387.282013 517.407288,405.780670 517.358643,424.277496 
	C517.351074,427.166382 517.528503,429.687164 521.435791,430.376190 
z"/>
<path fill="#000000" opacity="1.000000" stroke="none" 
	d="
M388.825409,660.262085 
	C388.814270,657.191589 389.937897,655.785950 392.705139,655.747131 
	C395.772430,655.704041 398.676453,655.528687 400.128357,659.189453 
	C402.693817,665.657715 405.474030,672.040771 408.601959,679.503601 
	C411.436768,672.698669 414.183868,666.909119 416.249390,660.885864 
	C417.841339,656.243530 420.806885,655.103699 425.081604,655.927185 
	C429.226593,656.725647 428.109711,660.172852 428.143921,662.775330 
	C428.264160,671.924194 428.124390,681.076355 428.208496,690.226013 
	C428.238281,693.466309 427.231354,695.188904 423.644379,695.137695 
	C420.110016,695.087219 419.611572,693.096924 419.648346,690.259888 
	C419.722992,684.501160 419.670685,678.740845 418.969849,672.840088 
	C416.875763,677.643127 414.741516,682.429260 412.707031,687.257385 
	C411.871826,689.239441 410.790039,690.772644 408.418976,690.800110 
	C405.966553,690.828491 405.044037,689.115601 404.228882,687.179260 
	C402.199860,682.359253 400.099091,677.569336 397.211639,672.952393 
	C397.211639,678.715759 397.169342,684.479492 397.229645,690.242188 
	C397.259277,693.075317 396.705597,695.086731 393.205200,695.157166 
	C389.559479,695.230591 388.709564,693.373901 388.743988,690.178040 
	C388.849823,680.362976 388.802521,670.546204 388.825409,660.262085 
z"/>
<path fill="#000000" opacity="1.000000" stroke="none" 
	d="
M464.554535,676.965698 
	C468.701172,686.005615 465.601318,692.312256 456.383698,694.462769 
	C451.110962,695.692993 445.783539,695.039246 440.475983,695.019775 
	C437.991089,695.010620 436.905365,693.480530 436.902679,691.148560 
	C436.890564,680.665161 436.900574,670.181702 436.935486,659.698425 
	C436.942993,657.439331 437.776306,655.770203 440.395081,655.785889 
	C445.051208,655.813782 449.737640,655.547302 454.356842,655.982849 
	C463.771149,656.870361 468.187988,665.702698 461.827301,673.724670 
	C461.998260,675.248901 463.598358,675.591614 464.554535,676.965698 
M456.216492,685.824158 
	C457.954102,683.608948 458.490936,681.191162 456.144226,679.254639 
	C453.424866,677.010437 449.765015,676.367859 446.855865,677.965515 
	C444.005859,679.530640 445.204407,683.159302 445.763062,685.696167 
	C446.536377,689.207764 449.812225,687.336304 452.022766,687.641541 
	C453.365479,687.826904 454.582245,687.155762 456.216492,685.824158 
M455.716705,668.137451 
	C455.305634,663.572144 452.979889,661.582764 448.744446,662.383667 
	C444.272919,663.229187 445.319550,667.306152 445.869171,669.527344 
	C446.858643,673.526184 450.350861,671.061035 452.839355,670.830994 
	C454.017883,670.722107 454.967194,670.000000 455.716705,668.137451 
z"/>
<path fill="#000000" opacity="1.000000" stroke="none" 
	d="
M470.973236,677.670837 
	C470.868652,665.049072 474.952087,658.098755 483.693604,655.506531 
	C495.073914,652.131836 504.826233,657.833679 507.466248,669.405640 
	C510.561249,682.971924 504.976776,693.157288 493.152252,695.543457 
	C483.713318,697.448242 472.433472,693.150452 470.973236,677.670837 
M481.513489,667.281250 
	C479.804230,671.766113 479.727783,676.401978 480.772888,680.974670 
	C481.854614,685.707642 485.847137,688.727173 490.024658,688.483337 
	C494.535339,688.219971 497.781433,685.181702 498.652344,680.271667 
	C499.176514,677.316589 499.107147,674.337036 498.768585,671.352234 
	C498.306396,667.277039 496.802185,663.781128 492.572479,662.635437 
	C488.259430,661.467102 484.298462,662.200500 481.513489,667.281250 
z"/>
<path fill="#000000" opacity="1.000000" stroke="none" 
	d="
M260.991638,663.771240 
	C255.809631,667.825684 254.147278,674.131592 255.945236,680.548645 
	C257.363892,685.611938 260.803650,687.996521 265.713867,688.384155 
	C268.074829,688.570557 271.010040,688.936218 271.600708,685.397461 
	C272.134064,682.201843 271.433594,679.716187 267.539764,679.505920 
	C264.768707,679.356323 264.449036,677.451355 264.552277,675.286438 
	C264.664215,672.938721 266.424713,672.937561 268.131378,672.773438 
	C279.909760,671.640503 279.910522,671.631470 279.960571,683.697754 
	C279.968170,685.529968 279.948792,687.362244 279.947815,689.194519 
	C279.946350,691.854492 278.784149,693.584473 276.117523,694.297241 
	C270.750763,695.731506 265.340607,696.583374 259.861420,695.153992 
	C253.805466,693.574097 249.274292,690.027710 247.708710,683.796997 
	C245.656967,675.631592 245.331085,667.425354 251.556686,660.730896 
	C257.040924,654.833618 264.207733,654.012512 271.857574,655.231567 
	C276.785492,656.016907 278.423920,658.508179 276.663849,663.710571 
	C271.621246,662.981934 266.414551,660.930359 260.991638,663.771240 
z"/>
<path fill="#000000" opacity="1.000000" stroke="none" 
	d="
M374.496399,664.599976 
	C377.510712,673.128784 380.435516,681.271851 383.265045,689.447876 
	C383.867096,691.187439 385.527588,693.504028 382.705261,694.568359 
	C380.057892,695.566650 377.079742,695.911072 375.222473,692.752625 
	C374.972412,692.327393 374.832916,691.836731 374.644531,691.375488 
	C372.435883,685.966736 367.164734,683.565735 361.873413,685.504578 
	C359.780396,686.271545 359.641663,688.211060 359.040222,689.893250 
	C357.036469,695.497559 355.849670,696.038879 349.524872,694.117126 
	C348.731964,691.357666 350.393188,689.019531 351.217194,686.613525 
	C354.128479,678.113159 357.349152,669.718872 360.275269,661.223267 
	C361.378387,658.020508 362.454956,655.656189 366.644073,655.604675 
	C371.030243,655.550781 372.481842,657.896118 373.397400,661.395508 
	C373.649261,662.358215 374.043793,663.283508 374.496399,664.599976 
M365.051117,678.557495 
	C366.659943,678.548584 368.327301,679.061890 370.088959,677.888733 
	C369.857635,674.154724 368.878510,670.602356 366.269745,666.219910 
	C365.870575,671.112427 362.106995,674.128235 365.051117,678.557495 
z"/>
<path fill="#000000" opacity="1.000000" stroke="none" 
	d="
M731.926636,655.788086 
	C735.513245,655.550781 736.619812,657.612854 737.525513,660.161682 
	C740.980042,669.883545 744.603210,679.546143 747.982605,689.293579 
	C748.578613,691.012817 750.782837,693.628479 747.378845,694.694336 
	C744.533386,695.585266 740.793762,696.023621 739.903442,692.092224 
	C738.532593,686.039429 734.918335,684.800781 729.387146,685.187622 
	C726.187866,685.411316 724.441772,686.470581 723.613159,689.445496 
	C723.257996,690.720520 722.867432,692.066345 722.139832,693.140747 
	C720.428406,695.667725 717.781616,695.426514 715.402222,694.605713 
	C712.717224,693.679443 714.137939,691.539307 714.699829,689.971497 
	C718.349487,679.787537 722.129822,669.650452 725.792664,659.471191 
	C726.791870,656.694397 728.623474,655.500122 731.926636,655.788086 
M732.919800,678.585754 
	C734.566956,678.531006 735.501160,677.830933 734.928040,676.077148 
	C733.970398,673.146362 733.685608,669.943176 731.434021,666.959839 
	C729.752075,670.762756 728.199524,674.118286 728.138184,677.838867 
	C729.550110,678.907104 730.921875,678.515747 732.919800,678.585754 
z"/>
<path fill="#000000" opacity="1.000000" stroke="none" 
	d="
M294.579468,661.661011 
	C295.686981,657.779541 297.316101,655.547241 301.636566,655.648621 
	C306.029236,655.751587 306.571289,658.665466 307.624023,661.688660 
	C310.799316,670.806946 314.107849,679.878784 317.320496,688.984253 
	C317.913605,690.665283 318.975189,692.320740 318.124847,694.230347 
	C311.854156,696.182190 310.284302,695.624695 308.569366,689.769470 
	C307.419525,685.843628 304.962616,685.120117 301.426971,685.295654 
	C297.974945,685.467102 294.167297,684.551331 293.207367,689.526855 
	C292.989838,690.654419 292.523865,691.773071 291.976227,692.790405 
	C290.454132,695.617920 287.742798,695.333984 285.377563,694.672852 
	C282.355530,693.828125 283.802185,691.544434 284.442139,689.755493 
	C287.751099,680.505188 291.108215,671.272156 294.579468,661.661011 
M301.360199,678.665222 
	C303.125000,678.590210 304.967194,678.466492 304.266571,675.925598 
	C303.451508,672.969788 302.442688,670.067444 301.054718,665.676392 
	C299.591461,670.107727 298.516632,673.007996 297.688995,675.977173 
	C296.976593,678.532715 298.864807,678.609070 301.360199,678.665222 
z"/>
<path fill="#000000" opacity="1.000000" stroke="none" 
	d="
M620.553467,693.570557 
	C616.830811,684.867371 616.833923,684.976807 609.215576,685.191650 
	C606.661926,685.263733 605.146545,686.089783 604.460999,688.546082 
	C604.060364,689.981506 603.721497,691.515686 602.946228,692.748413 
	C601.215332,695.500610 598.390625,695.331970 595.842041,694.473022 
	C593.200256,693.582642 594.590942,691.367554 595.122131,689.821228 
	C598.627380,679.617065 602.271362,669.460754 605.835632,659.276733 
	C606.719910,656.750061 608.324951,655.568115 611.077698,655.704895 
	C613.608215,655.830627 616.095520,655.598572 617.154907,658.734436 
	C620.819519,669.581482 624.574646,680.397888 628.237122,691.245667 
	C628.535461,692.129272 628.392944,693.161682 628.460999,694.213806 
	C625.687561,695.424438 623.205933,695.660400 620.553467,693.570557 
M613.979736,673.156250 
	C613.280273,671.005981 612.580750,668.855652 611.550171,665.687439 
	C610.024353,670.450073 608.237366,673.952515 608.081299,678.054016 
	C610.640442,678.726196 612.842529,678.547729 615.298706,677.838989 
	C614.896301,676.314575 614.565186,675.060120 613.979736,673.156250 
z"/>
<path fill="#000000" opacity="1.000000" stroke="none" 
	d="
M533.400269,672.368958 
	C540.024231,675.269348 542.897095,679.627197 542.053162,685.097900 
	C541.157104,690.905579 537.342285,694.356262 530.828796,695.360107 
	C526.314941,696.055786 521.911926,695.680786 517.527710,694.434692 
	C514.492981,693.572144 513.503174,691.570862 514.269226,688.751953 
	C515.070129,685.804626 517.273743,687.156006 519.184204,687.346375 
	C522.316101,687.658386 525.474487,687.810608 528.622253,687.818298 
	C530.542419,687.822937 532.291870,687.116943 532.716492,684.909546 
	C533.166565,682.569458 531.949036,681.013489 529.917847,680.203186 
	C527.144592,679.096802 524.247009,678.303284 521.469421,677.206665 
	C516.104675,675.088562 513.481995,671.208374 513.845093,666.182800 
	C514.249817,660.580505 517.180542,657.165161 522.787292,655.596497 
	C526.901978,654.445129 530.976257,654.487183 535.095154,655.563782 
	C540.095032,656.870667 540.760986,658.081665 539.121033,663.668640 
	C535.760986,663.213745 532.363892,662.652161 528.944458,662.323547 
	C526.287476,662.068237 523.774414,662.582886 523.219116,665.763000 
	C522.681641,668.840820 525.046753,669.700134 527.328857,670.451904 
	C529.222290,671.075745 531.137085,671.634766 533.400269,672.368958 
z"/>
<path fill="#000000" opacity="1.000000" stroke="none" 
	d="
M636.327759,655.873169 
	C641.284668,655.786682 645.790771,655.546997 650.266602,655.813599 
	C658.420105,656.299133 663.338928,661.298340 663.318909,668.674255 
	C663.298706,676.108826 658.397400,680.829102 650.155945,681.322632 
	C648.828064,681.402161 647.492676,681.441956 646.163757,681.401489 
	C643.438354,681.318542 642.174805,682.529175 642.347778,685.311096 
	C642.461182,687.134766 642.295776,688.975159 642.394043,690.800537 
	C642.553284,693.759583 641.214294,695.085938 638.272827,695.036499 
	C635.529236,694.990417 633.815613,694.005554 633.818848,690.963196 
	C633.830017,680.479248 633.798767,669.995361 633.798706,659.511414 
	C633.798706,657.947876 634.069946,656.494873 636.327759,655.873169 
M653.298828,671.534912 
	C654.312561,668.515320 654.748718,665.295227 651.394226,663.738647 
	C648.793640,662.531982 645.046875,661.591553 643.143188,664.308533 
	C641.404907,666.789490 641.408325,670.864380 643.072449,673.307983 
	C645.058716,676.224731 648.487061,674.237122 651.252502,673.333008 
	C651.842773,673.140015 652.306824,672.561218 653.298828,671.534912 
z"/>
<path fill="#000000" opacity="1.000000" stroke="none" 
	d="
M579.186035,695.970886 
	C562.747742,693.055664 555.639832,677.251160 563.973999,663.050720 
	C568.307190,655.667480 581.593262,651.980225 588.847656,656.147644 
	C591.102295,657.442871 591.408325,658.858154 590.268616,663.323120 
	C587.074463,662.971619 583.842285,662.425476 580.594177,662.303040 
	C575.627808,662.115723 572.460449,664.671509 570.992981,669.374878 
	C569.823853,673.122253 569.821838,676.980469 570.689697,680.711609 
	C572.123962,686.877258 576.799438,688.928955 585.063538,687.672668 
	C587.125305,687.359192 590.071228,684.680298 591.149353,688.815002 
	C592.220825,692.924377 589.503723,694.511108 586.024780,695.144409 
	C583.903625,695.530640 581.747192,695.722656 579.186035,695.970886 
z"/>
<path fill="#000000" opacity="1.000000" stroke="none" 
	d="
M694.626709,667.554077 
	C694.547852,663.297180 691.917969,663.144958 689.071838,663.123047 
	C686.414307,663.102539 683.516357,663.382202 683.654846,659.222656 
	C683.783081,655.369690 686.511536,655.764587 688.968201,655.747009 
	C695.778931,655.698120 702.590149,655.735657 709.401123,655.709351 
	C712.067078,655.699097 714.418884,655.825378 714.399231,659.520142 
	C714.381287,662.896667 712.267029,663.082153 709.759827,663.209167 
	C703.215515,663.540527 703.212097,663.583862 703.203064,670.384094 
	C703.194214,677.028992 703.136658,683.674622 703.224426,690.318359 
	C703.264954,693.379456 702.107422,694.943726 698.903076,695.024963 
	C695.589966,695.108948 694.595398,693.491760 694.636292,690.423584 
	C694.735840,682.949585 694.652771,675.473083 694.626709,667.554077 
z"/>
<path fill="#000000" opacity="1.000000" stroke="none" 
	d="
M335.989624,695.187683 
	C321.214905,695.034058 322.914001,696.737976 322.966461,682.820496 
	C322.992126,676.009583 322.941467,669.197815 323.029419,662.387817 
	C323.068756,659.340271 322.319855,655.804199 327.383301,655.746521 
	C332.294891,655.690674 331.992798,658.969360 332.015198,662.175049 
	C332.061584,668.819763 332.294861,675.474060 332.018982,682.106445 
	C331.832642,686.585083 333.606506,688.102722 337.859650,687.680176 
	C340.161133,687.451416 342.506378,687.664734 344.831879,687.675293 
	C346.969849,687.684998 348.321930,688.466797 348.254456,690.887878 
	C348.191437,693.148010 347.456268,694.880249 344.947021,695.027710 
	C342.131195,695.193115 339.302704,695.143250 335.989624,695.187683 
z"/>
<path fill="#000000" opacity="1.000000" stroke="none" 
	d="
M762.397644,682.614624 
	C762.063843,686.512146 763.625122,687.920410 767.060059,687.722595 
	C769.876770,687.560425 772.712097,687.748108 775.538574,687.721252 
	C777.946350,687.698364 779.193054,688.650391 779.287048,691.235474 
	C779.390991,694.091980 778.027344,695.130615 775.406372,695.128174 
	C769.586182,695.122742 763.765869,695.118408 757.945923,695.161133 
	C755.026855,695.182617 753.756409,693.821228 753.770508,690.895081 
	C753.820190,680.584961 753.814514,670.274170 753.746948,659.964111 
	C753.727478,656.983032 755.082825,655.840210 757.979614,655.773926 
	C761.176086,655.700745 762.454773,657.014221 762.407104,660.211121 
	C762.298218,667.526550 762.386108,674.844788 762.397644,682.614624 
z"/>
<path fill="#000000" opacity="1.000000" stroke="none" 
	d="
M678.089844,688.763916 
	C678.278015,692.839111 677.533691,695.401794 672.974792,695.156372 
	C668.674011,694.924744 668.962158,692.036316 668.959167,689.189575 
	C668.949463,679.903564 668.980530,670.617554 668.982117,661.331543 
	C668.982605,658.302124 669.229797,655.784058 673.375366,655.674622 
	C677.788818,655.557983 678.152100,658.144714 678.136475,661.429749 
	C678.093994,670.383972 678.103027,679.338562 678.089844,688.763916 
z"/>
</svg>